<svg xmlns="http://www.w3.org/2000/svg" viewBox="0 0 512 512" width="512" height="512">
  <rect fill="#0B7E74" x="72" y="108" width="300" height="88" rx="14"/>
  <rect fill="#0B7E74" x="55" y="222" width="330" height="100" rx="14"/>
  <path fill="#fff" d="M 64.8 418.6 L 66.5 417.4 L 68.4 416.2 L 70.3 414.9 L 72.4 413.5 L 74.7 412.1 L 77.0 410.6 L 79.5 409.1 L 82.1 407.6 L 84.8 406.0 L 87.6 404.4 L 90.5 402.7 L 93.5 401.0 L 96.6 399.3 L 99.8 397.5 L 103.1 395.7 L 106.5 393.9 L 110.0 392.1 L 113.6 390.2 L 117.2 388.3 L 120.9 386.4 L 124.8 384.4 L 128.7 382.5 L 132.6 380.5 L 136.7 378.5 L 140.8 376.5 L 145.0 374.4 L 149.2 372.4 L 153.6 370.3 L 158.0 368.2 L 162.4 366.1 L 166.9 364.0 L 171.5 361.9 L 176.1 359.7 L 180.8 357.6 L 185.5 355.4 L 190.3 353.3 L 195.1 351.1 L 200.0 348.9 L 204.9 346.8 L 209.9 344.6 L 214.9 342.4 L 220.0 340.2 L 225.0 338.0 L 230.2 335.8 L 235.3 333.6 L 240.5 331.4 L 245.7 329.3 L 251.0 327.1 L 256.2 324.9 L 261.5 322.7 L 266.8 320.5 L 272.2 318.4 L 277.5 316.2 L 282.9 314.1 L 288.3 311.9 L 293.6 309.8 L 299.1 307.7 L 304.5 305.6 L 309.9 303.5 L 315.3 301.4 L 320.7 299.3 L 326.2 297.3 L 331.6 295.3 L 337.0 293.2 L 342.4 291.2 L 347.9 289.3 L 353.3 287.3 L 358.7 285.4 L 364.1 283.4 L 369.4 281.5 L 374.8 279.7 L 380.1 277.8 L 385.4 276.0 L 390.7 274.2 L 396.0 272.4 L 401.2 270.7 L 406.5 269.0 L 411.7 267.3 L 416.8 265.6 L 399.2 210.4 L 393.8 212.1 L 388.5 213.8 L 383.1 215.6 L 377.6 217.4 L 372.2 219.2 L 366.7 221.1 L 361.2 223.0 L 355.7 224.9 L 350.2 226.8 L 344.7 228.8 L 339.1 230.7 L 333.6 232.7 L 328.0 234.8 L 322.5 236.8 L 316.9 238.8 L 311.3 240.9 L 305.7 243.0 L 300.2 245.1 L 294.6 247.2 L 289.1 249.4 L 283.5 251.5 L 278.0 253.7 L 272.4 255.8 L 266.9 258.0 L 261.4 260.2 L 255.9 262.4 L 250.4 264.6 L 244.9 266.8 L 239.5 269.0 L 234.1 271.3 L 228.7 273.5 L 223.3 275.7 L 218.0 278.0 L 212.7 280.2 L 207.4 282.5 L 202.2 284.7 L 196.9 287.0 L 191.8 289.2 L 186.6 291.5 L 181.5 293.7 L 176.5 295.9 L 171.5 298.2 L 166.5 300.4 L 161.6 302.6 L 156.7 304.8 L 151.9 307.0 L 147.1 309.2 L 142.4 311.4 L 137.7 313.6 L 133.1 315.8 L 128.6 317.9 L 124.1 320.1 L 119.7 322.2 L 115.3 324.4 L 111.0 326.5 L 106.8 328.6 L 102.7 330.6 L 98.6 332.7 L 94.6 334.7 L 90.6 336.8 L 86.7 338.8 L 82.9 340.7 L 79.2 342.7 L 75.6 344.7 L 72.0 346.6 L 68.6 348.5 L 65.2 350.4 L 61.9 352.2 L 58.6 354.1 L 55.5 355.9 L 52.5 357.7 L 49.5 359.5 L 46.6 361.2 L 43.8 363.0 L 41.1 364.7 L 38.5 366.4 L 36.0 368.1 L 33.5 369.7 L 31.2 371.4 Z"/>
  <polygon fill="#fff" points="458,222 418,268 398,208"/>
  <path fill="#0B7E74" d="M 59.6 411.3 L 61.4 410.0 L 63.3 408.7 L 65.4 407.3 L 67.6 405.9 L 69.9 404.5 L 72.3 403.0 L 74.8 401.4 L 77.5 399.8 L 80.2 398.2 L 83.1 396.6 L 86.0 394.9 L 89.1 393.1 L 92.3 391.4 L 95.5 389.6 L 98.8 387.8 L 102.3 386.0 L 105.8 384.1 L 109.4 382.2 L 113.1 380.3 L 116.8 378.4 L 120.7 376.4 L 124.6 374.4 L 128.6 372.4 L 132.7 370.4 L 136.8 368.4 L 141.1 366.3 L 145.3 364.3 L 149.7 362.2 L 154.1 360.1 L 158.6 358.0 L 163.1 355.8 L 167.7 353.7 L 172.4 351.6 L 177.1 349.4 L 181.8 347.2 L 186.6 345.1 L 191.5 342.9 L 196.4 340.7 L 201.3 338.5 L 206.3 336.3 L 211.3 334.1 L 216.4 331.9 L 221.5 329.7 L 226.6 327.5 L 231.8 325.3 L 237.0 323.1 L 242.2 321.0 L 247.5 318.8 L 252.8 316.6 L 258.1 314.4 L 263.4 312.2 L 268.8 310.0 L 274.2 307.9 L 279.5 305.7 L 284.9 303.6 L 290.4 301.4 L 295.8 299.3 L 301.2 297.2 L 306.7 295.1 L 312.1 293.0 L 317.6 290.9 L 323.0 288.9 L 328.5 286.8 L 333.9 284.8 L 339.3 282.8 L 344.8 280.8 L 350.2 278.8 L 355.6 276.9 L 361.0 275.0 L 366.4 273.0 L 371.8 271.2 L 377.2 269.3 L 382.5 267.5 L 387.8 265.7 L 393.1 263.9 L 398.4 262.1 L 403.7 260.4 L 408.9 258.7 L 414.1 257.1 L 401.9 218.9 L 396.6 220.7 L 391.2 222.4 L 385.9 224.2 L 380.5 226.0 L 375.1 227.8 L 369.6 229.6 L 364.1 231.5 L 358.7 233.4 L 353.2 235.3 L 347.7 237.3 L 342.2 239.2 L 336.6 241.2 L 331.1 243.2 L 325.6 245.2 L 320.0 247.3 L 314.5 249.3 L 308.9 251.4 L 303.4 253.5 L 297.8 255.6 L 292.3 257.8 L 286.8 259.9 L 281.2 262.0 L 275.7 264.2 L 270.2 266.4 L 264.7 268.6 L 259.2 270.8 L 253.8 273.0 L 248.3 275.2 L 242.9 277.4 L 237.5 279.6 L 232.2 281.8 L 226.8 284.1 L 221.5 286.3 L 216.2 288.5 L 210.9 290.8 L 205.7 293.0 L 200.5 295.2 L 195.4 297.5 L 190.2 299.7 L 185.2 301.9 L 180.1 304.2 L 175.1 306.4 L 170.2 308.6 L 165.3 310.8 L 160.4 313.0 L 155.6 315.2 L 150.9 317.4 L 146.2 319.6 L 141.6 321.8 L 137.0 323.9 L 132.5 326.1 L 128.0 328.2 L 123.6 330.3 L 119.3 332.4 L 115.0 334.5 L 110.8 336.6 L 106.7 338.7 L 102.6 340.7 L 98.6 342.7 L 94.7 344.8 L 90.9 346.7 L 87.1 348.7 L 83.5 350.7 L 79.9 352.6 L 76.4 354.5 L 72.9 356.4 L 69.6 358.2 L 66.3 360.1 L 63.1 361.9 L 60.1 363.7 L 57.1 365.4 L 54.2 367.2 L 51.3 368.9 L 48.6 370.6 L 46.0 372.3 L 43.5 373.9 L 41.0 375.5 L 38.7 377.1 L 36.4 378.7 Z"/>
  <polygon fill="#0B7E74" points="454,223 416,263 400,213"/>
</svg>